<?xml version="1.0" encoding="UTF-8" standalone="no"?>
<!-- Created with Inkscape (http://www.inkscape.org/) -->

<svg
   version="1.1"
   id="svg2"
   width="362.827"
   height="309.34698"
   viewBox="0 0 362.827 309.34698"
   xmlns="http://www.w3.org/2000/svg"
   xmlns:svg="http://www.w3.org/2000/svg"
   xmlns:rdf="http://www.w3.org/1999/02/22-rdf-syntax-ns#"
   xmlns:cc="http://creativecommons.org/ns#"
   xmlns:dc="http://purl.org/dc/elements/1.1/">
  <title
     id="title5">SHARCNET Logo</title>
  <defs
     id="defs6" />
  <g
     id="g8"
     transform="matrix(1.3333333,0,0,-1.3333333,0,119.34667)">
    <g
       id="g5"
       transform="translate(-147.70463,-143.69622)">
      <path
         d="M 411.39456,230.19245 151.62328,43.554814 c -3.88684,-2.795036 -3.15171,-5.078691 1.63512,-5.078691 h 42.44312 c 2.36172,2.866547 110.07775,132.917507 198.12017,144.457777 16.02898,2.10202 -50.40642,-64.13053 -32.77562,-144.457777 h 48.71417 c 4.78457,0 8.70137,3.913748 8.70137,8.701423 V 226.56806 c 0,4.78501 -3.18038,6.41762 -7.06705,3.62439"
         style="fill:#2f63b7;fill-opacity:1;fill-rule:nonzero;stroke:none;stroke-width:0.215327"
         id="path12" />
      <g
         id="g4">
        <g
           id="g3">
          <path
             d="m 149.074,9.99141 c 3.289,-1.33086 5.756,-1.90743 8.498,-1.90743 2.833,0 4.934,0.97579 4.934,2.26172 0,1.1535 -1.188,2.218 -6.67,6.4309 -3.198,2.4832 -4.661,3.725 -5.666,4.7894 -1.188,1.3305 -1.736,2.6168 -1.736,3.9469 0,4.3906 6.488,7.6277 15.26,7.6277 3.473,0 6.397,-0.3988 9.412,-1.2859 v -5.5879 c -3.015,1.0645 -4.843,1.4633 -7.127,1.4633 -2.741,0 -4.843,-0.9758 -4.843,-2.1731 0,-0.9308 0.913,-1.9953 3.381,-3.9465 l 3.838,-3.0601 c 5.3,-4.1691 7.036,-6.1645 7.036,-8.4707 0,-4.34611 -6.488,-7.49454 -15.443,-7.49454 -4.112,0 -7.859,0.57617 -10.874,1.64062 v 5.76563"
             style="fill:#e6a909;fill-opacity:1;fill-rule:nonzero;stroke:none;stroke-width:0.1"
             id="path14" />
          <path
             d="m 177.92,32.6973 h 12.519 V 21.3887 h 8.407 v 11.3086 h 12.519 V 3.11719 H 198.846 V 16.466 h -8.407 V 3.11719 H 177.92 V 32.6973"
             style="fill:#e6a909;fill-opacity:1;fill-rule:nonzero;stroke:none;stroke-width:0.1"
             id="path16" />
          <path
             d="M 228.242,9.99141 226.141,3.11719 H 213.347 L 225.044,32.6973 H 240.03 L 251.635,3.11719 h -13.341 l -2.01,6.87422 z m 4.021,13.34839 -2.559,-8.4261 h 5.117 z"
             style="fill:#e6a909;fill-opacity:1;fill-rule:nonzero;stroke:none;stroke-width:0.1"
             id="path18" />
          <path
             d="m 253.617,32.6973 h 12.977 c 6.853,0 9.868,-0.3551 12.701,-1.5078 3.564,-1.4196 5.484,-3.6813 5.484,-6.475 0,-3.104 -2.011,-5.1887 -6.581,-6.5192 3.29,-1.2418 4.204,-2.35 5.757,-7.0957 l 2.833,-7.98241 h -13.341 l -2.285,8.51481 c -0.913,3.4149 -1.827,4.2571 -4.751,4.2571 -0.092,0 -0.184,0 -0.274,0 V 3.11719 h -12.52 z m 12.52,-12.5508 c 2.467,-0.0438 3.563,0.1332 4.568,0.6211 1.188,0.6211 1.919,1.8629 1.919,3.3262 0,2.4835 -1.827,3.6363 -5.757,3.6363 -0.182,0 -0.456,0 -0.73,-0.0442 v -7.5394"
             style="fill:#e6a909;fill-opacity:1;fill-rule:nonzero;stroke:none;stroke-width:0.1"
             id="path20" />
          <path
             d="m 315.544,3.42773 c -2.833,-0.62109 -4.752,-0.79882 -7.585,-0.79882 -13.25,0 -21.656,5.89882 -21.656,15.12309 0,9.2242 8.771,15.3886 22.021,15.3886 2.833,0 4.569,-0.1773 7.585,-0.7984 v -5.4988 c -2.193,0.7093 -3.563,0.9312 -5.574,0.9312 -7.036,0 -10.966,-3.6808 -10.966,-10.1113 0,-2.927 0.824,-5.3219 2.376,-6.7852 1.919,-1.81833 4.844,-2.83787 8.225,-2.83787 2.01,0 3.289,0.22149 5.574,0.9754 v -5.5879"
             style="fill:#e6a909;fill-opacity:1;fill-rule:nonzero;stroke:none;stroke-width:0.1"
             id="path22" />
        </g>
        <g
           id="g2">
          <path
             d="m 347.954,7.25117 h 0.161 V 32.3668 h 5.223 V 3.11719 H 346.99 L 324.65,28.1547 h -0.161 V 3.11719 h -5.223 V 32.3668 h 6.509 L 347.954,7.25117"
             style="fill:#2f63b7;fill-opacity:1;fill-rule:nonzero;stroke:none;stroke-width:0.1"
             id="path24" />
          <path
             d="M 356.099,3.11719 V 32.3668 h 27.322 v -2.2617 h -22.1 V 19.5754 h 20.091 V 17.3129 H 361.321 V 5.37891 h 22.501 V 3.11719 h -27.723"
             style="fill:#2f63b7;fill-opacity:1;fill-rule:nonzero;stroke:none;stroke-width:0.1"
             id="path26" />
          <path
             d="m 386.072,30.1051 v 2.2617 h 32.546 V 30.1051 H 404.957 V 3.11719 h -5.223 V 30.1051 h -13.662"
             style="fill:#2f63b7;fill-opacity:1;fill-rule:nonzero;stroke:none;stroke-width:0.1"
             id="path28" />
        </g>
      </g>
    </g>
  </g>
  <metadata
     id="metadata5">
    <rdf:RDF>
      <cc:Work
         rdf:about="">
        <dc:title>SHARCNET Logo</dc:title>
      </cc:Work>
    </rdf:RDF>
  </metadata>
</svg>
